<?xml version="1.0" encoding="UTF-8" standalone="no"?>
<!-- Created with Inkscape (http://www.inkscape.org/) -->

<svg
   xmlns:ns0="http://www.iki.fi/pav/software/textext/"
   xmlns:dc="http://purl.org/dc/elements/1.1/"
   xmlns:cc="http://creativecommons.org/ns#"
   xmlns:rdf="http://www.w3.org/1999/02/22-rdf-syntax-ns#"
   xmlns:svg="http://www.w3.org/2000/svg"
   xmlns="http://www.w3.org/2000/svg"
   xmlns:xlink="http://www.w3.org/1999/xlink"
   xmlns:sodipodi="http://sodipodi.sourceforge.net/DTD/sodipodi-0.dtd"
   xmlns:inkscape="http://www.inkscape.org/namespaces/inkscape"
   id="svg2"
   version="1.1"
   inkscape:version="0.92.3 (2405546, 2018-03-11)"
   width="127.40541"
   height="327.60944"
   xml:space="preserve"
   sodipodi:docname="fig-tourelle.svg"><sodipodi:namedview
     pagecolor="#ffffff"
     bordercolor="#666666"
     borderopacity="1"
     objecttolerance="10"
     gridtolerance="10"
     guidetolerance="10"
     inkscape:pageopacity="0"
     inkscape:pageshadow="2"
     inkscape:window-width="1912"
     inkscape:window-height="1017"
     id="namedview4"
     showgrid="true"
     inkscape:zoom="3.4615524"
     inkscape:cx="202.09902"
     inkscape:cy="235.56092"
     inkscape:window-x="0"
     inkscape:window-y="0"
     inkscape:window-maximized="0"
     inkscape:current-layer="g256"
     inkscape:snap-to-guides="true"
     inkscape:snap-grids="true"
     fit-margin-top="0"
     fit-margin-left="0"
     fit-margin-right="0"
     fit-margin-bottom="0"><inkscape:grid
       id="grid4884"
       type="xygrid"
       originx="-9.8560463"
       originy="-5.1881132" /></sodipodi:namedview><metadata
     id="metadata8"><rdf:RDF><cc:Work
         rdf:about=""><dc:format>image/svg+xml</dc:format><dc:type
           rdf:resource="http://purl.org/dc/dcmitype/StillImage" /><dc:title /></cc:Work></rdf:RDF></metadata><defs
     id="defs6"><marker
       inkscape:stockid="CurveIn"
       orient="auto"
       refY="0.0"
       refX="0.0"
       id="CurveIn"
       style="overflow:visible"
       inkscape:isstock="true"><path
         id="path1371"
         d="M 4.6254930,-5.0456926 C 1.8654930,-5.0456926 -0.37450702,-2.8056926 -0.37450702,-0.045692580 C -0.37450702,2.7143074 1.8654930,4.9543074 4.6254930,4.9543074"
         style="fill-rule:evenodd;stroke:#000000;stroke-width:1pt;fill:none;stroke-opacity:1"
         transform="scale(0.6)" /></marker><marker
       inkscape:stockid="DotM"
       orient="auto"
       refY="0.0"
       refX="0.0"
       id="DotM"
       style="overflow:visible"
       inkscape:isstock="true"><path
         id="path1251"
         d="M -2.5,-1.0 C -2.5,1.7600000 -4.7400000,4.0 -7.5,4.0 C -10.260000,4.0 -12.5,1.7600000 -12.5,-1.0 C -12.5,-3.7600000 -10.260000,-6.0 -7.5,-6.0 C -4.7400000,-6.0 -2.5,-3.7600000 -2.5,-1.0 z "
         style="fill-rule:evenodd;stroke:#000000;stroke-width:1.0pt"
         transform="scale(0.4) translate(7.4, 1)" /></marker><marker
       inkscape:isstock="true"
       style="overflow:visible"
       id="marker4894"
       refX="0"
       refY="0"
       orient="auto"
       inkscape:stockid="Arrow1Mend"><path
         transform="matrix(-0.4,0,0,-0.4,-4,0)"
         style="fill:#000000;fill-opacity:1;fill-rule:evenodd;stroke:#000000;stroke-width:1.00000003pt;stroke-opacity:1"
         d="M 0,0 5,-5 -12.5,0 5,5 Z"
         id="path4896"
         inkscape:connector-curvature="0" /></marker><marker
       inkscape:isstock="true"
       style="overflow:visible"
       id="Arrow2Mend"
       refX="0"
       refY="0"
       orient="auto"
       inkscape:stockid="Arrow2Mend"><path
         transform="scale(-0.6)"
         d="M 8.7185878,4.0337352 -2.2072895,0.01601326 8.7185884,-4.0017078 c -1.7454984,2.3720609 -1.7354408,5.6174519 -6e-7,8.035443 z"
         style="fill:#000000;fill-opacity:1;fill-rule:evenodd;stroke:#000000;stroke-width:0.625;stroke-linejoin:round;stroke-opacity:1"
         id="path4502"
         inkscape:connector-curvature="0" /></marker><marker
       inkscape:collect="always"
       inkscape:stockid="Arrow1Mend"
       orient="auto"
       refY="0"
       refX="0"
       id="marker11023"
       style="overflow:visible"
       inkscape:isstock="true"><path
         id="path11025"
         d="M 0,0 5,-5 -12.5,0 5,5 Z"
         style="fill:#000000;fill-opacity:1;fill-rule:evenodd;stroke:#000000;stroke-width:1.00000003pt;stroke-opacity:1"
         transform="matrix(-0.4,0,0,-0.4,-4,0)"
         inkscape:connector-curvature="0" /></marker><marker
       inkscape:collect="always"
       inkscape:isstock="true"
       style="overflow:visible"
       id="marker10842"
       refX="0"
       refY="0"
       orient="auto"
       inkscape:stockid="Arrow1Mend"><path
         transform="matrix(-0.4,0,0,-0.4,-4,0)"
         style="fill:#000000;fill-opacity:1;fill-rule:evenodd;stroke:#000000;stroke-width:1.00000003pt;stroke-opacity:1"
         d="M 0,0 5,-5 -12.5,0 5,5 Z"
         id="path4484"
         inkscape:connector-curvature="0" /></marker><marker
       style="overflow:visible"
       id="Arrow1Mstart"
       refX="0"
       refY="0"
       orient="auto"
       inkscape:stockid="Arrow1Mstart"><path
         transform="matrix(0.4,0,0,0.4,4,0)"
         style="fill-rule:evenodd;stroke:#000000;stroke-width:1.00000003pt;marker-start:none"
         d="M 0,0 5,-5 -12.5,0 5,5 Z"
         id="path3878"
         inkscape:connector-curvature="0" /></marker><marker
       style="overflow:visible"
       id="Arrow1Lstart"
       refX="0"
       refY="0"
       orient="auto"
       inkscape:stockid="Arrow1Lstart"><path
         transform="matrix(0.8,0,0,0.8,10,0)"
         style="fill-rule:evenodd;stroke:#000000;stroke-width:1.00000003pt;marker-start:none"
         d="M 0,0 5,-5 -12.5,0 5,5 Z"
         id="path3872"
         inkscape:connector-curvature="0" /></marker><marker
       style="overflow:visible"
       id="Arrow1Mend"
       refX="0"
       refY="0"
       orient="auto"
       inkscape:stockid="Arrow1Mend"><path
         transform="matrix(-0.4,0,0,-0.4,-4,0)"
         style="fill-rule:evenodd;stroke:#000000;stroke-width:1.00000003pt;marker-start:none"
         d="M 0,0 5,-5 -12.5,0 5,5 Z"
         id="path3881"
         inkscape:connector-curvature="0" /></marker><clipPath
       id="clipPath22"
       clipPathUnits="userSpaceOnUse"><path
         id="path24"
         d="M 0,1770 V 0 h 2180 v 1770 z m 753.014,-1292.833 -21.416,30.865 -60.471,-42.203 57.321,16.377 -35.904,-47.873 z"
         inkscape:connector-curvature="0"
         style="clip-rule:evenodd" /></clipPath><clipPath
       id="clipPath38"
       clipPathUnits="userSpaceOnUse"><path
         id="path40"
         d="M 0,1770 V 0 h 2180 v 1770 z m 310.824,-326.57 -19.526,-32.75 64.249,-37.17 -39.053,44.73 57.95,-11.97 z"
         inkscape:connector-curvature="0"
         style="clip-rule:evenodd" /></clipPath><clipPath
       id="clipPath82"
       clipPathUnits="userSpaceOnUse"><path
         id="path84"
         d="M 0,1770 V 0 h 2180 v 1770 z m 1264.49,-820.408 28.98,23.936 -60.47,73.072 34.01,-70.552 -62.99,45.982 z"
         inkscape:connector-curvature="0"
         style="clip-rule:evenodd" /></clipPath><marker
       style="overflow:visible"
       id="Arrow1Mstart-1"
       refX="0"
       refY="0"
       orient="auto"
       inkscape:stockid="Arrow1Mstart"><path
         transform="matrix(0.4,0,0,0.4,4,0)"
         style="fill-rule:evenodd;stroke:#000000;stroke-width:1.00000003pt;marker-start:none"
         d="M 0,0 5,-5 -12.5,0 5,5 Z"
         id="path3878-4"
         inkscape:connector-curvature="0" /></marker><marker
       style="overflow:visible"
       id="Arrow1Mend-7"
       refX="0"
       refY="0"
       orient="auto"
       inkscape:stockid="Arrow1Mend"><path
         transform="matrix(-0.4,0,0,-0.4,-4,0)"
         style="fill-rule:evenodd;stroke:#000000;stroke-width:1.00000003pt;marker-start:none"
         d="M 0,0 5,-5 -12.5,0 5,5 Z"
         id="path3881-7"
         inkscape:connector-curvature="0" /></marker><marker
       style="overflow:visible"
       id="marker6762"
       refX="0"
       refY="0"
       orient="auto"
       inkscape:stockid="Arrow1Mend"><path
         transform="matrix(-0.4,0,0,-0.4,-4,0)"
         style="fill-rule:evenodd;stroke:#000000;stroke-width:1.00000003pt;marker-start:none"
         d="M 0,0 5,-5 -12.5,0 5,5 Z"
         id="path6764"
         inkscape:connector-curvature="0" /></marker><marker
       inkscape:collect="always"
       inkscape:isstock="true"
       style="overflow:visible"
       id="marker10842-3"
       refX="0"
       refY="0"
       orient="auto"
       inkscape:stockid="Arrow1Mend"><path
         transform="matrix(-0.4,0,0,-0.4,-4,0)"
         style="fill:#000000;fill-opacity:1;fill-rule:evenodd;stroke:#000000;stroke-width:1.00000003pt;stroke-opacity:1"
         d="M 0,0 5,-5 -12.5,0 5,5 Z"
         id="path4484-6"
         inkscape:connector-curvature="0" /></marker><marker
       inkscape:collect="always"
       inkscape:isstock="true"
       style="overflow:visible"
       id="marker10842-3-5"
       refX="0"
       refY="0"
       orient="auto"
       inkscape:stockid="Arrow1Mend"><path
         transform="matrix(-0.4,0,0,-0.4,-4,0)"
         style="fill:#000000;fill-opacity:1;fill-rule:evenodd;stroke:#000000;stroke-width:1.00000003pt;stroke-opacity:1"
         d="M 0,0 5,-5 -12.5,0 5,5 Z"
         id="path4484-6-3"
         inkscape:connector-curvature="0" /></marker><marker
       style="overflow:visible"
       id="Arrow1Mstart-1-2"
       refX="0"
       refY="0"
       orient="auto"
       inkscape:stockid="Arrow1Mstart"><path
         transform="matrix(0.4,0,0,0.4,4,0)"
         style="fill-rule:evenodd;stroke:#000000;stroke-width:1.00000003pt;marker-start:none"
         d="M 0,0 5,-5 -12.5,0 5,5 Z"
         id="path3878-4-9"
         inkscape:connector-curvature="0" /></marker><marker
       style="overflow:visible"
       id="marker6762-1"
       refX="0"
       refY="0"
       orient="auto"
       inkscape:stockid="Arrow1Mend"><path
         transform="matrix(-0.4,0,0,-0.4,-4,0)"
         style="fill-rule:evenodd;stroke:#000000;stroke-width:1.00000003pt;marker-start:none"
         d="M 0,0 5,-5 -12.5,0 5,5 Z"
         id="path6764-2"
         inkscape:connector-curvature="0" /></marker><marker
       inkscape:collect="always"
       inkscape:isstock="true"
       style="overflow:visible"
       id="marker10842-3-3"
       refX="0"
       refY="0"
       orient="auto"
       inkscape:stockid="Arrow1Mend"><path
         transform="matrix(-0.4,0,0,-0.4,-4,0)"
         style="fill:#000000;fill-opacity:1;fill-rule:evenodd;stroke:#000000;stroke-width:1.00000003pt;stroke-opacity:1"
         d="M 0,0 5,-5 -12.5,0 5,5 Z"
         id="path4484-6-6"
         inkscape:connector-curvature="0" /></marker><marker
       inkscape:collect="always"
       inkscape:isstock="true"
       style="overflow:visible"
       id="marker10842-3-5-0"
       refX="0"
       refY="0"
       orient="auto"
       inkscape:stockid="Arrow1Mend"><path
         transform="matrix(-0.4,0,0,-0.4,-4,0)"
         style="fill:#000000;fill-opacity:1;fill-rule:evenodd;stroke:#000000;stroke-width:1.00000003pt;stroke-opacity:1"
         d="M 0,0 5,-5 -12.5,0 5,5 Z"
         id="path4484-6-3-9"
         inkscape:connector-curvature="0" /></marker></defs><g
     style="display:inline"
     transform="matrix(1.25,0,0,-1.25,-9.8560463,332.79756)"
     inkscape:label="fig-tourelle"
     inkscape:groupmode="layer"
     id="g10"><path
   sodipodi:nodetypes="cc"
   id="path16"
   style="fill:none;stroke:#000000;stroke-width:0.47242498;stroke-linecap:butt;stroke-linejoin:miter;stroke-miterlimit:10;stroke-dasharray:0.94485, 2.83455;stroke-dashoffset:28.34550095;stroke-opacity:1"
   d="M 109.694,173.382 12.932182,119.35019"
   inkscape:connector-curvature="0" /><path
   inkscape:connector-curvature="0"
   d="m 46.49161,57.866321 c 3.536928,-4.342408 8.233945,-6.764498 13.118062,-6.764498 4.884117,0 9.581135,2.422209 13.118155,6.764618"
   style="fill:none;stroke:#000000;stroke-width:0.80000001;stroke-linecap:butt;stroke-linejoin:miter;stroke-miterlimit:4;stroke-dasharray:none;stroke-opacity:1;marker-end:url(#marker11023)"
   id="path26" /><path
   inkscape:connector-curvature="0"
   d="m 76.931248,144.94196 c 2.453773,2.13098 3.819058,4.93979 3.819058,7.85854 0,5.20556 -4.302542,9.76294 -10.489968,11.10998"
   style="fill:none;stroke:#000000;stroke-width:0.80000001;stroke-linecap:butt;stroke-linejoin:miter;stroke-miterlimit:4;stroke-dasharray:none;stroke-opacity:1;marker-end:url(#Arrow2Mend)"
   id="path42" /><path
   id="path52"
   style="fill:none;stroke:#000000;stroke-width:0.94484997;stroke-linecap:butt;stroke-linejoin:miter;stroke-miterlimit:10;stroke-dasharray:none;stroke-opacity:1"
   d="M 74.9235,146.233 50.2314,131.934"
   inkscape:connector-curvature="0" /><path
   sodipodi:nodetypes="ccccc"
   id="path72"
   style="fill:none;stroke:#000000;stroke-width:0.94484997;stroke-linecap:butt;stroke-linejoin:miter;stroke-miterlimit:10;stroke-dasharray:none;stroke-opacity:1"
   d="m 45.72873,137.53794 -12.598,-7.25396 v -18.88704 l 27.0227,16.063 v -40.3137"
   inkscape:connector-curvature="0" /><path
   id="path76"
   style="fill:none;stroke:#000000;stroke-width:0.94484997;stroke-linecap:butt;stroke-linejoin:miter;stroke-miterlimit:10;stroke-dasharray:none;stroke-opacity:1"
   d="M 59.9319,54.0787 V 29.670347"
   inkscape:connector-curvature="0" /><path
   inkscape:connector-curvature="0"
   d="m 48,180 -0.175158,22.135"
   style="fill:none;stroke:#000000;stroke-width:0.80000001;stroke-linecap:butt;stroke-linejoin:miter;stroke-miterlimit:10;stroke-dasharray:none;stroke-opacity:1;marker-end:url(#marker10842)"
   id="path86" /><path
   id="path94"
   style="fill:none;stroke:#000000;stroke-width:0.94484997;stroke-linecap:butt;stroke-linejoin:miter;stroke-miterlimit:10;stroke-dasharray:none;stroke-opacity:1"
   d="m 74.9235,146.225 c 0.5361,1.257 0.8126,2.61 0.8126,3.976 0,5.134 -3.8379,9.456 -8.9351,10.064"
   inkscape:connector-curvature="0" /><path
   sodipodi:nodetypes="csc"
   id="path96"
   style="fill:none;stroke:#000000;stroke-width:0.94484997;stroke-linecap:butt;stroke-linejoin:miter;stroke-miterlimit:10;stroke-dasharray:none;stroke-opacity:1"
   d="m 51.472953,58.681982 c 1.967964,-2.934139 4.479071,-4.665963 7.795362,-4.665963 3.316394,0 6.435484,1.731824 8.403449,4.665963"
   inkscape:connector-curvature="0" /><path
   id="path98"
   style="fill:none;stroke:#000000;stroke-width:0.94484997;stroke-linecap:butt;stroke-linejoin:miter;stroke-miterlimit:10;stroke-dasharray:none;stroke-opacity:1"
   d="m 51.24064,71.664965 c 1.9021,-2.5799 4.9168,-4.1028 8.1222,-4.1028 3.2053,0 6.2201,1.5229 8.1222,4.1029"
   inkscape:connector-curvature="0" /><path
   id="path100"
   style="fill:none;stroke:#000000;stroke-width:0.94484997;stroke-linecap:butt;stroke-linejoin:miter;stroke-miterlimit:10;stroke-dasharray:none;stroke-opacity:1"
   d="m 63.908474,140.38127 c 0.3065,0.978 0.4624,1.997 0.4624,3.022 0,5.58 -4.5236,10.103 -10.1036,10.103 -0.0235,0 -0.0471,0 -0.0705,0"
   inkscape:connector-curvature="0" /><path
   id="path102"
   style="fill:none;stroke:#000000;stroke-width:0.94484997;stroke-linecap:butt;stroke-linejoin:miter;stroke-miterlimit:10;stroke-dasharray:none;stroke-opacity:1"
   d="m 42.0742,146.026 c 1.9282,1.113 5.3103,-1.135 7.5541,-5.021 2.2438,-3.887 2.4998,-7.94 0.5716,-9.053 -1.9281,-1.113 -5.3103,1.135 -7.5541,5.021 -2.2438,3.887 -2.4997,7.94 -0.5716,9.053 z"
   inkscape:connector-curvature="0" /><path
   id="path104"
   style="fill:none;stroke:#000000;stroke-width:0.94484997;stroke-linecap:butt;stroke-linejoin:miter;stroke-miterlimit:10;stroke-dasharray:none;stroke-opacity:1"
   d="m 67.6167,86.1406 c 0,-2.2265 -3.6381,-4.0314 -8.1258,-4.0314 -4.4877,0 -8.1257,1.8049 -8.1257,4.0314 0,2.2264 3.638,4.0313 8.1257,4.0313 4.4877,0 8.1258,-1.8049 8.1258,-4.0313 z"
   inkscape:connector-curvature="0" /><path
   id="path106"
   style="fill:none;stroke:#000000;stroke-width:0.94484997;stroke-linecap:butt;stroke-linejoin:miter;stroke-miterlimit:10;stroke-dasharray:none;stroke-opacity:1"
   d="M 66.7978,160.28 42.0427,146.044"
   inkscape:connector-curvature="0" /><path
   id="path108"
   style="fill:none;stroke:#000000;stroke-width:0.94484997;stroke-linecap:butt;stroke-linejoin:miter;stroke-miterlimit:10;stroke-dasharray:none;stroke-opacity:1"
   d="M 58.987,29.6385 56.9713,21.4499"
   inkscape:connector-curvature="0" /><path
   id="path110"
   style="fill:none;stroke:#000000;stroke-width:0.94484997;stroke-linecap:butt;stroke-linejoin:miter;stroke-miterlimit:10;stroke-dasharray:none;stroke-opacity:1"
   d="M 63.0814,29.6385 61.0657,21.4499"
   inkscape:connector-curvature="0" /><path
   id="path112"
   style="fill:none;stroke:#000000;stroke-width:0.94484997;stroke-linecap:butt;stroke-linejoin:miter;stroke-miterlimit:10;stroke-dasharray:none;stroke-opacity:1"
   d="M 67.1127,29.6385 65.097,21.4499"
   inkscape:connector-curvature="0" /><path
   id="path114"
   style="fill:none;stroke:#000000;stroke-width:0.94484997;stroke-linecap:butt;stroke-linejoin:miter;stroke-miterlimit:10;stroke-dasharray:none;stroke-opacity:1"
   d="M 52.877,29.6385 H 67.1127"
   inkscape:connector-curvature="0" /><path
   id="path116"
   style="fill:none;stroke:#000000;stroke-width:0.94484997;stroke-linecap:butt;stroke-linejoin:miter;stroke-miterlimit:10;stroke-dasharray:none;stroke-opacity:1"
   d="M 54.8927,29.6385 52.877,21.4499"
   inkscape:connector-curvature="0" /><path
   id="path118"
   style="fill:none;stroke:#000000;stroke-width:0.94484997;stroke-linecap:butt;stroke-linejoin:miter;stroke-miterlimit:10;stroke-dasharray:none;stroke-opacity:1"
   d="M 67.5537,58.488 V 87.0224"
   inkscape:connector-curvature="0" /><path
   id="path120"
   style="fill:none;stroke:#000000;stroke-width:0.94484997;stroke-linecap:butt;stroke-linejoin:miter;stroke-miterlimit:10;stroke-dasharray:none;stroke-opacity:1"
   d="m 51.317365,58.188165 v 28.4715"
   inkscape:connector-curvature="0" /><g
   id="g4942"
   ns0:preamble=""
   ns0:text="$x_0$\n"
   transform="matrix(1.1693035,0,0,-1.1693035,-188.40098,180.94659)"><defs
     id="defs4944"><g
       id="g4946"><symbol
         id="textext-cf9b9b78-0"
         overflow="visible"
         style="overflow:visible"><path
           id="path4949"
           d=""
           style="stroke:none"
           inkscape:connector-curvature="0" /></symbol><symbol
         id="textext-cf9b9b78-1"
         overflow="visible"
         style="overflow:visible"><path
           id="path4952"
           d="M 3.328125,-3.015625 C 3.390625,-3.265625 3.625,-4.1875 4.3125,-4.1875 c 0.046875,0 0.296875,0 0.5,0.125 C 4.53125,-4 4.34375,-3.765625 4.34375,-3.515625 c 0,0.15625 0.109375,0.34375 0.375,0.34375 0.21875,0 0.53125,-0.171875 0.53125,-0.578125 0,-0.515625 -0.578125,-0.65625 -0.921875,-0.65625 -0.578125,0 -0.921875,0.53125 -1.046875,0.75 -0.25,-0.65625 -0.78125,-0.75 -1.078125,-0.75 -1.03125,0 -1.609375,1.28125 -1.609375,1.53125 0,0.109375 0.109375,0.109375 0.125,0.109375 0.078125,0 0.109375,-0.03125 0.125,-0.109375 0.34375,-1.0625 1,-1.3125 1.34375,-1.3125 0.1875,0 0.53125,0.09375 0.53125,0.671875 0,0.3125 -0.171875,0.96875 -0.53125,2.375 -0.15625,0.609375 -0.515625,1.03125 -0.953125,1.03125 -0.0625,0 -0.28125,0 -0.5,-0.125 0.25,-0.0625 0.46875,-0.265625 0.46875,-0.546875 0,-0.265625 -0.21875,-0.34375 -0.359375,-0.34375 -0.3125,0 -0.546875,0.25 -0.546875,0.578125 0,0.453125 0.484375,0.65625 0.921875,0.65625 0.671875,0 1.03125,-0.703125 1.046875,-0.75 0.125,0.359375 0.484375,0.75 1.078125,0.75 1.03125,0 1.59375,-1.28125 1.59375,-1.53125 0,-0.109375 -0.078125,-0.109375 -0.109375,-0.109375 -0.09375,0 -0.109375,0.046875 -0.140625,0.109375 -0.328125,1.078125 -1,1.3125 -1.3125,1.3125 -0.390625,0 -0.546875,-0.3125 -0.546875,-0.65625 0,-0.21875 0.046875,-0.4375 0.15625,-0.875 z"
           style="stroke:none"
           inkscape:connector-curvature="0" /></symbol><symbol
         id="textext-cf9b9b78-2"
         overflow="visible"
         style="overflow:visible"><path
           id="path4955"
           d=""
           style="stroke:none"
           inkscape:connector-curvature="0" /></symbol><symbol
         id="textext-cf9b9b78-3"
         overflow="visible"
         style="overflow:visible"><path
           id="path4958"
           d="M 3.59375,-2.21875 C 3.59375,-2.984375 3.5,-3.546875 3.1875,-4.03125 2.96875,-4.34375 2.53125,-4.625 1.984375,-4.625 c -1.625,0 -1.625,1.90625 -1.625,2.40625 0,0.5 0,2.359375 1.625,2.359375 1.609375,0 1.609375,-1.859375 1.609375,-2.359375 z M 1.984375,-0.0625 c -0.328125,0 -0.75,-0.1875 -0.890625,-0.75 C 1,-1.21875 1,-1.796875 1,-2.3125 1,-2.828125 1,-3.359375 1.09375,-3.734375 1.25,-4.28125 1.6875,-4.4375 1.984375,-4.4375 c 0.375,0 0.734375,0.234375 0.859375,0.640625 0.109375,0.375 0.125,0.875 0.125,1.484375 0,0.515625 0,1.03125 -0.09375,1.46875 -0.140625,0.640625 -0.609375,0.78125 -0.890625,0.78125 z"
           style="stroke:none"
           inkscape:connector-curvature="0" /></symbol></g></defs><g
     id="textext-cf9b9b78-4"><g
       id="g4961"
       style="fill:#000000;fill-opacity:1"><use
         id="use4963"
         y="134.765"
         x="223.43201"
         xlink:href="#textext-cf9b9b78-1"
         width="272.5"
         height="221.25" /></g><g
       id="g4965"
       style="fill:#000000;fill-opacity:1"><use
         id="use4967"
         y="136.259"
         x="229.12601"
         xlink:href="#textext-cf9b9b78-3"
         width="272.5"
         height="221.25" /></g></g></g><g
   id="g5496"
   transform="matrix(1.1693035,0,0,-1.1693035,-198.76096,199.56183)"
   ns0:preamble=""
   ns0:text="$z_0$\n\n"><defs
     id="defs5498"><g
       id="g5500"><symbol
         id="textext-d946a87a-0"
         overflow="visible"
         style="overflow:visible"><path
           id="path5503"
           d=""
           style="stroke:none"
           inkscape:connector-curvature="0" /></symbol><symbol
         id="textext-d946a87a-1"
         overflow="visible"
         style="overflow:visible"><path
           id="path5506"
           d="m 1.328125,-0.828125 c 0.53125,-0.578125 0.828125,-0.828125 1.1875,-1.140625 0,0 0.609375,-0.53125 0.96875,-0.890625 C 4.4375,-3.78125 4.65625,-4.265625 4.65625,-4.3125 c 0,-0.09375 -0.09375,-0.09375 -0.109375,-0.09375 -0.078125,0 -0.09375,0.015625 -0.15625,0.109375 -0.296875,0.484375 -0.5,0.640625 -0.734375,0.640625 -0.25,0 -0.359375,-0.15625 -0.515625,-0.328125 -0.1875,-0.21875 -0.359375,-0.421875 -0.6875,-0.421875 -0.75,0 -1.203125,0.921875 -1.203125,1.140625 0,0.046875 0.03125,0.109375 0.109375,0.109375 0.09375,0 0.109375,-0.046875 0.140625,-0.109375 0.1875,-0.46875 0.765625,-0.46875 0.84375,-0.46875 0.203125,0 0.390625,0.0625 0.625,0.140625 0.40625,0.15625 0.515625,0.15625 0.765625,0.15625 -0.359375,0.421875 -1.1875,1.140625 -1.375,1.296875 l -0.90625,0.84375 C 0.78125,-0.625 0.421875,-0.0625 0.421875,0.015625 c 0,0.09375 0.109375,0.09375 0.125,0.09375 0.078125,0 0.09375,-0.015625 0.15625,-0.125 0.234375,-0.359375 0.53125,-0.625 0.859375,-0.625 0.21875,0 0.328125,0.09375 0.578125,0.375 0.15625,0.21875 0.34375,0.375 0.625,0.375 1,0 1.578125,-1.265625 1.578125,-1.53125 0,-0.046875 -0.046875,-0.109375 -0.125,-0.109375 -0.09375,0 -0.109375,0.0625 -0.140625,0.140625 C 3.84375,-0.75 3.203125,-0.5625 2.875,-0.5625 c -0.1875,0 -0.375,-0.0625 -0.578125,-0.125 -0.34375,-0.125 -0.5,-0.171875 -0.703125,-0.171875 -0.015625,0 -0.171875,0 -0.265625,0.03125 z"
           style="stroke:none"
           inkscape:connector-curvature="0" /></symbol><symbol
         id="textext-d946a87a-2"
         overflow="visible"
         style="overflow:visible"><path
           id="path5509"
           d=""
           style="stroke:none"
           inkscape:connector-curvature="0" /></symbol><symbol
         id="textext-d946a87a-3"
         overflow="visible"
         style="overflow:visible"><path
           id="path5512"
           d="M 3.59375,-2.21875 C 3.59375,-2.984375 3.5,-3.546875 3.1875,-4.03125 2.96875,-4.34375 2.53125,-4.625 1.984375,-4.625 c -1.625,0 -1.625,1.90625 -1.625,2.40625 0,0.5 0,2.359375 1.625,2.359375 1.609375,0 1.609375,-1.859375 1.609375,-2.359375 z M 1.984375,-0.0625 c -0.328125,0 -0.75,-0.1875 -0.890625,-0.75 C 1,-1.21875 1,-1.796875 1,-2.3125 1,-2.828125 1,-3.359375 1.09375,-3.734375 1.25,-4.28125 1.6875,-4.4375 1.984375,-4.4375 c 0.375,0 0.734375,0.234375 0.859375,0.640625 0.109375,0.375 0.125,0.875 0.125,1.484375 0,0.515625 0,1.03125 -0.09375,1.46875 -0.140625,0.640625 -0.609375,0.78125 -0.890625,0.78125 z"
           style="stroke:none"
           inkscape:connector-curvature="0" /></symbol></g></defs><g
     id="textext-d946a87a-4"><g
       id="g5515"
       style="fill:#000000;fill-opacity:1"><use
         id="use5517"
         y="134.765"
         x="223.43201"
         xlink:href="#textext-d946a87a-1"
         width="272.5"
         height="221.25" /></g><g
       id="g5519"
       style="fill:#000000;fill-opacity:1"><use
         id="use5521"
         y="136.259"
         x="228.065"
         xlink:href="#textext-d946a87a-3"
         width="272.5"
         height="221.25" /></g></g></g><g
   ns0:text="$q_1$\n\n\n"
   ns0:preamble=""
   transform="matrix(1.1693035,0,0,-1.1693035,-186.8429,215.52957)"
   id="g5818"><defs
     id="defs5820"><g
       id="g5822"><symbol
         style="overflow:visible"
         overflow="visible"
         id="textext-c36103d8-0"><path
           inkscape:connector-curvature="0"
           style="stroke:none"
           d=""
           id="path5825" /></symbol><symbol
         style="overflow:visible"
         overflow="visible"
         id="textext-c36103d8-1"><path
           inkscape:connector-curvature="0"
           style="stroke:none"
           d="m 4.5,-4.296875 c 0,-0.046875 -0.03125,-0.09375 -0.09375,-0.09375 -0.109375,0 -0.515625,0.390625 -0.671875,0.6875 C 3.515625,-4.25 3.125,-4.40625 2.796875,-4.40625 c -1.171875,0 -2.390625,1.46875 -2.390625,2.921875 0,0.96875 0.578125,1.59375 1.3125,1.59375 0.421875,0 0.8125,-0.234375 1.171875,-0.59375 -0.09375,0.34375 -0.421875,1.6875 -0.453125,1.78125 -0.078125,0.28125 -0.15625,0.3125 -0.71875,0.328125 -0.125,0 -0.21875,0 -0.21875,0.203125 0,0 0,0.109375 0.125,0.109375 0.3125,0 0.671875,-0.03125 1,-0.03125 0.328125,0 0.6875,0.03125 1.03125,0.03125 0.046875,0 0.171875,0 0.171875,-0.203125 C 3.828125,1.625 3.734375,1.625 3.5625,1.625 3.09375,1.625 3.09375,1.5625 3.09375,1.46875 3.09375,1.390625 3.109375,1.328125 3.125,1.25 Z m -2.75,4.1875 c -0.609375,0 -0.640625,-0.765625 -0.640625,-0.9375 0,-0.484375 0.28125,-1.5625 0.453125,-1.984375 0.3125,-0.734375 0.828125,-1.15625 1.234375,-1.15625 0.65625,0 0.796875,0.8125 0.796875,0.875 0,0.0625 -0.546875,2.25 -0.578125,2.28125 C 2.859375,-0.75 2.296875,-0.109375 1.75,-0.109375 Z"
           id="path5828" /></symbol><symbol
         style="overflow:visible"
         overflow="visible"
         id="textext-c36103d8-2"><path
           inkscape:connector-curvature="0"
           style="stroke:none"
           d=""
           id="path5831" /></symbol><symbol
         style="overflow:visible"
         overflow="visible"
         id="textext-c36103d8-3"><path
           inkscape:connector-curvature="0"
           style="stroke:none"
           d="m 2.328125,-4.4375 c 0,-0.1875 0,-0.1875 -0.203125,-0.1875 -0.453125,0.4375 -1.078125,0.4375 -1.359375,0.4375 v 0.25 c 0.15625,0 0.625,0 1,-0.1875 v 3.546875 c 0,0.234375 0,0.328125 -0.6875,0.328125 H 0.8125 V 0 c 0.125,0 0.984375,-0.03125 1.234375,-0.03125 0.21875,0 1.09375,0.03125 1.25,0.03125 V -0.25 H 3.03125 c -0.703125,0 -0.703125,-0.09375 -0.703125,-0.328125 z"
           id="path5834" /></symbol></g></defs><g
     id="textext-c36103d8-4"><g
       style="fill:#000000;fill-opacity:1"
       id="g5837"><use
         height="221.25"
         width="272.5"
         xlink:href="#textext-c36103d8-1"
         x="223.43201"
         y="134.765"
         id="use5839" /></g><g
       style="fill:#000000;fill-opacity:1"
       id="g5841"><use
         height="221.25"
         width="272.5"
         xlink:href="#textext-c36103d8-3"
         x="227.88"
         y="136.259"
         id="use5843" /></g></g></g><g
   id="g6172"
   transform="matrix(1.1693035,0,0,-1.1693035,-193.30975,326.96444)"
   ns0:preamble=""
   ns0:text="$q_2$\n\n\n\n"><defs
     id="defs6174"><g
       id="g6176"><symbol
         style="overflow:visible"
         id="textext-e8fd2115-0"
         overflow="visible"><path
           inkscape:connector-curvature="0"
           id="path6179"
           d=""
           style="stroke:none" /></symbol><symbol
         style="overflow:visible"
         id="textext-e8fd2115-1"
         overflow="visible"><path
           inkscape:connector-curvature="0"
           id="path6182"
           d="m 4.5,-4.296875 c 0,-0.046875 -0.03125,-0.09375 -0.09375,-0.09375 -0.109375,0 -0.515625,0.390625 -0.671875,0.6875 C 3.515625,-4.25 3.125,-4.40625 2.796875,-4.40625 c -1.171875,0 -2.390625,1.46875 -2.390625,2.921875 0,0.96875 0.578125,1.59375 1.3125,1.59375 0.421875,0 0.8125,-0.234375 1.171875,-0.59375 -0.09375,0.34375 -0.421875,1.6875 -0.453125,1.78125 -0.078125,0.28125 -0.15625,0.3125 -0.71875,0.328125 -0.125,0 -0.21875,0 -0.21875,0.203125 0,0 0,0.109375 0.125,0.109375 0.3125,0 0.671875,-0.03125 1,-0.03125 0.328125,0 0.6875,0.03125 1.03125,0.03125 0.046875,0 0.171875,0 0.171875,-0.203125 C 3.828125,1.625 3.734375,1.625 3.5625,1.625 3.09375,1.625 3.09375,1.5625 3.09375,1.46875 3.09375,1.390625 3.109375,1.328125 3.125,1.25 Z m -2.75,4.1875 c -0.609375,0 -0.640625,-0.765625 -0.640625,-0.9375 0,-0.484375 0.28125,-1.5625 0.453125,-1.984375 0.3125,-0.734375 0.828125,-1.15625 1.234375,-1.15625 0.65625,0 0.796875,0.8125 0.796875,0.875 0,0.0625 -0.546875,2.25 -0.578125,2.28125 C 2.859375,-0.75 2.296875,-0.109375 1.75,-0.109375 Z"
           style="stroke:none" /></symbol><symbol
         style="overflow:visible"
         id="textext-e8fd2115-2"
         overflow="visible"><path
           inkscape:connector-curvature="0"
           id="path6185"
           d=""
           style="stroke:none" /></symbol><symbol
         style="overflow:visible"
         id="textext-e8fd2115-3"
         overflow="visible"><path
           inkscape:connector-curvature="0"
           id="path6188"
           d="M 3.515625,-1.265625 H 3.28125 c -0.015625,0.15625 -0.09375,0.5625 -0.1875,0.625 C 3.046875,-0.59375 2.515625,-0.59375 2.40625,-0.59375 H 1.125 c 0.734375,-0.640625 0.984375,-0.84375 1.390625,-1.171875 0.515625,-0.40625 1,-0.84375 1,-1.5 0,-0.84375 -0.734375,-1.359375 -1.625,-1.359375 -0.859375,0 -1.453125,0.609375 -1.453125,1.25 0,0.34375 0.296875,0.390625 0.375,0.390625 0.15625,0 0.359375,-0.125 0.359375,-0.375 0,-0.125 -0.046875,-0.375 -0.40625,-0.375 C 0.984375,-4.21875 1.453125,-4.375 1.78125,-4.375 c 0.703125,0 1.0625,0.546875 1.0625,1.109375 0,0.609375 -0.4375,1.078125 -0.65625,1.328125 L 0.515625,-0.265625 C 0.4375,-0.203125 0.4375,-0.1875 0.4375,0 h 2.875 z"
           style="stroke:none" /></symbol></g></defs><g
     id="textext-e8fd2115-4"><g
       id="g6191"
       style="fill:#000000;fill-opacity:1"><use
         height="100%"
         width="100%"
         id="use6193"
         y="134.765"
         x="223.43201"
         xlink:href="#textext-e8fd2115-1" /></g><g
       id="g6195"
       style="fill:#000000;fill-opacity:1"><use
         height="100%"
         width="100%"
         id="use6197"
         y="136.259"
         x="227.88"
         xlink:href="#textext-e8fd2115-3" /></g></g></g><g
   ns0:text="$q_3$\n\n\n\n\n"
   ns0:preamble=""
   transform="matrix(1.1693035,0,0,-1.1693035,-226.55504,345.42262)"
   id="g6558"><defs
     id="defs6560"><g
       id="g6562"><symbol
         style="overflow:visible"
         overflow="visible"
         id="textext-f2555a78-0"><path
           inkscape:connector-curvature="0"
           style="stroke:none"
           d=""
           id="path6565" /></symbol><symbol
         style="overflow:visible"
         overflow="visible"
         id="textext-f2555a78-1"><path
           inkscape:connector-curvature="0"
           style="stroke:none"
           d="m 4.5,-4.296875 c 0,-0.046875 -0.03125,-0.09375 -0.09375,-0.09375 -0.109375,0 -0.515625,0.390625 -0.671875,0.6875 C 3.515625,-4.25 3.125,-4.40625 2.796875,-4.40625 c -1.171875,0 -2.390625,1.46875 -2.390625,2.921875 0,0.96875 0.578125,1.59375 1.3125,1.59375 0.421875,0 0.8125,-0.234375 1.171875,-0.59375 -0.09375,0.34375 -0.421875,1.6875 -0.453125,1.78125 -0.078125,0.28125 -0.15625,0.3125 -0.71875,0.328125 -0.125,0 -0.21875,0 -0.21875,0.203125 0,0 0,0.109375 0.125,0.109375 0.3125,0 0.671875,-0.03125 1,-0.03125 0.328125,0 0.6875,0.03125 1.03125,0.03125 0.046875,0 0.171875,0 0.171875,-0.203125 C 3.828125,1.625 3.734375,1.625 3.5625,1.625 3.09375,1.625 3.09375,1.5625 3.09375,1.46875 3.09375,1.390625 3.109375,1.328125 3.125,1.25 Z m -2.75,4.1875 c -0.609375,0 -0.640625,-0.765625 -0.640625,-0.9375 0,-0.484375 0.28125,-1.5625 0.453125,-1.984375 0.3125,-0.734375 0.828125,-1.15625 1.234375,-1.15625 0.65625,0 0.796875,0.8125 0.796875,0.875 0,0.0625 -0.546875,2.25 -0.578125,2.28125 C 2.859375,-0.75 2.296875,-0.109375 1.75,-0.109375 Z"
           id="path6568" /></symbol><symbol
         style="overflow:visible"
         overflow="visible"
         id="textext-f2555a78-2"><path
           inkscape:connector-curvature="0"
           style="stroke:none"
           d=""
           id="path6571" /></symbol><symbol
         style="overflow:visible"
         overflow="visible"
         id="textext-f2555a78-3"><path
           inkscape:connector-curvature="0"
           style="stroke:none"
           d="m 1.90625,-2.328125 c 0.546875,0 0.9375,0.375 0.9375,1.125 0,0.859375 -0.515625,1.125 -0.90625,1.125 -0.28125,0 -0.90625,-0.078125 -1.1875,-0.5 0.328125,0 0.40625,-0.234375 0.40625,-0.390625 0,-0.21875 -0.171875,-0.375 -0.390625,-0.375 -0.1875,0 -0.390625,0.125 -0.390625,0.40625 0,0.65625 0.71875,1.078125 1.5625,1.078125 0.96875,0 1.640625,-0.65625 1.640625,-1.34375 0,-0.546875 -0.4375,-1.09375 -1.203125,-1.25 0.71875,-0.265625 0.984375,-0.78125 0.984375,-1.21875 0,-0.546875 -0.625,-0.953125 -1.40625,-0.953125 -0.765625,0 -1.359375,0.375 -1.359375,0.9375 0,0.234375 0.15625,0.359375 0.359375,0.359375 0.21875,0 0.359375,-0.15625 0.359375,-0.34375 0,-0.203125 -0.140625,-0.359375 -0.359375,-0.375 0.25,-0.296875 0.71875,-0.375 0.984375,-0.375 0.3125,0 0.75,0.15625 0.75,0.75 0,0.296875 -0.09375,0.625 -0.28125,0.828125 -0.21875,0.265625 -0.421875,0.28125 -0.765625,0.3125 -0.171875,0.015625 -0.1875,0.015625 -0.21875,0.015625 -0.015625,0 -0.078125,0.015625 -0.078125,0.09375 0,0.09375 0.0625,0.09375 0.1875,0.09375 z"
           id="path6574" /></symbol></g></defs><g
     id="textext-f2555a78-4"><g
       style="fill:#000000;fill-opacity:1"
       id="g6577"><use
         height="100%"
         width="100%"
         xlink:href="#textext-f2555a78-1"
         x="223.43201"
         y="134.765"
         id="use6579" /></g><g
       style="fill:#000000;fill-opacity:1"
       id="g6581"><use
         height="100%"
         width="100%"
         xlink:href="#textext-f2555a78-3"
         x="227.88"
         y="136.259"
         id="use6583" /></g></g></g><g
   transform="rotate(140.43944,71.052931,133.58405)"
   id="g256"><path
     inkscape:connector-curvature="0"
     d="M 111.79536,114.20312 99.139046,106.71447 120.02165,81.753344 132.04505,89.2418 Z"
     style="fill:none;stroke:#000000;stroke-width:0.94484997;stroke-linecap:butt;stroke-linejoin:miter;stroke-miterlimit:10;stroke-dasharray:none;stroke-opacity:1"
     id="path56" /><path
     inkscape:connector-curvature="0"
     d="m 98.992563,106.67102 1.304747,-9.274067 19.57077,-25.173601 v 9.274484"
     style="fill:none;stroke:#000000;stroke-width:0.94484997;stroke-linecap:butt;stroke-linejoin:miter;stroke-miterlimit:10;stroke-dasharray:none;stroke-opacity:1"
     id="path58" /><path
     inkscape:connector-curvature="0"
     d="M 127.77278,81.773222 147.71561,57.025048"
     style="fill:none;stroke:#000000;stroke-width:0.94485003;stroke-linecap:butt;stroke-linejoin:miter;stroke-miterlimit:10;stroke-dasharray:none;stroke-opacity:1;marker-end:url(#CurveIn)"
     id="path60"
     sodipodi:nodetypes="cc" /><path
     inkscape:connector-curvature="0"
     d="m 119.722,71.3379 12.598,8.4407 -0.063,9.5745"
     style="fill:none;stroke:#000000;stroke-width:0.94484997;stroke-linecap:butt;stroke-linejoin:miter;stroke-miterlimit:10;stroke-dasharray:none;stroke-opacity:1"
     id="path68" /><path
     sodipodi:nodetypes="cc"
     id="path11015"
     style="fill:none;stroke:#000000;stroke-width:0.94484991;stroke-linecap:butt;stroke-linejoin:miter;stroke-miterlimit:10;stroke-dasharray:none;stroke-opacity:1"
     d="M 91.408036,126.29888 104.94981,109.84842"
     inkscape:connector-curvature="0" /></g><path
   inkscape:connector-curvature="0"
   d="m 59.665675,174.00145 0.82323,-52.42836"
   style="fill:none;stroke:#000000;stroke-width:0.47242498;stroke-linecap:butt;stroke-linejoin:miter;stroke-miterlimit:10;stroke-dasharray:0.94485001, 2.83455004;stroke-dashoffset:28.34550095;stroke-opacity:1"
   id="path4591"
   sodipodi:nodetypes="cc" /><path
   inkscape:connector-curvature="0"
   d="M 58.822597,29.325239 13.639877,4.3572406"
   style="fill:none;stroke:#000000;stroke-width:0.47242501;stroke-linecap:butt;stroke-linejoin:miter;stroke-miterlimit:10;stroke-dasharray:0.94484999, 2.83454998;stroke-dashoffset:28.34550095;stroke-opacity:1"
   id="path4882"
   sodipodi:nodetypes="cc" /><path
   inkscape:connector-curvature="0"
   id="path4886"
   d="M 20,121.9467 V 7.9733046"
   style="fill:none;fill-rule:evenodd;stroke:#000000;stroke-width:0.80000001px;stroke-linecap:butt;stroke-linejoin:miter;stroke-opacity:1;marker-start:url(#Arrow1Mstart-1);marker-end:url(#marker6762)" /><text
   transform="scale(1,-1)"
   id="text4970"
   y="-61.973408"
   x="22.613338"
   style="font-style:italic;font-variant:normal;font-weight:normal;font-stretch:normal;line-height:0%;font-family:'Times New Roman';-inkscape-font-specification:'Times New Roman, Italic';text-align:start;letter-spacing:0px;word-spacing:0px;writing-mode:lr-tb;text-anchor:start;fill:#000000;fill-opacity:1;stroke:none;stroke-width:1px;stroke-linecap:butt;stroke-linejoin:miter;stroke-opacity:1"
   xml:space="preserve"><tspan
     style="font-style:italic;font-variant:normal;font-weight:normal;font-stretch:normal;font-size:12px;line-height:125%;font-family:'Times New Roman';-inkscape-font-specification:'Times New Roman, Italic';text-align:start;writing-mode:lr-tb;text-anchor:start"
     y="-61.973408"
     x="22.613338"
     id="tspan4972"
     sodipodi:role="line">b</tspan></text>





<path
   inkscape:connector-curvature="0"
   d="M 60.175158,29.865 60,48"
   style="display:inline;fill:none;stroke:#000000;stroke-width:0.72411746;stroke-linecap:butt;stroke-linejoin:miter;stroke-miterlimit:10;stroke-dasharray:none;stroke-opacity:1;marker-end:url(#marker10842-3)"
   id="path86-7" /><path
   inkscape:connector-curvature="0"
   d="M 59.965482,29.839631 75.2,20"
   style="display:inline;fill:none;stroke:#000000;stroke-width:0.72411746;stroke-linecap:butt;stroke-linejoin:miter;stroke-miterlimit:10;stroke-dasharray:none;stroke-opacity:1;marker-end:url(#marker10842-3-5)"
   id="path86-7-5" /><path
   sodipodi:nodetypes="cc"
   id="path16-6"
   style="display:inline;fill:none;stroke:#000000;stroke-width:0.47242498;stroke-linecap:butt;stroke-linejoin:miter;stroke-miterlimit:10;stroke-dasharray:0.94485, 2.83455;stroke-dashoffset:28.34550095;stroke-opacity:1"
   d="M 104.76182,266.03181 8,212"
   inkscape:connector-curvature="0" /><g
   id="g472"
   ns0:jacobian_sqrt="1.333333"
   inkscapeversion="0.91"
   ns0:alignment="middle center"
   ns0:scale="1.0"
   ns0:preamble="/home/olivier/.config/inkscape/extensions/default_packages.tex"
   ns0:text="$d$"
   ns0:pdfconverter="pdf2svg"
   ns0:texconverter="pdflatex"
   ns0:version="0.8.0"
   transform="matrix(1.565037,0,0,-1.5214421,-206.55976,363.30796)"><g
   id="surface1">
<g
   id="g469"
   style="fill:#000000;fill-opacity:1">
  <path
   id="path467"
   transform="translate(148.712,134.765)"
   d="m 5.140625,-6.8125 c 0,0 0,-0.109375 -0.125,-0.109375 -0.15625,0 -1.09375,0.09375 -1.265625,0.109375 -0.078125,0.015625 -0.140625,0.0625 -0.140625,0.1875 0,0.125 0.09375,0.125 0.234375,0.125 0.484375,0 0.5,0.0625 0.5,0.171875 L 4.3125,-6.125 3.71875,-3.765625 C 3.53125,-4.140625 3.25,-4.40625 2.796875,-4.40625 c -1.15625,0 -2.390625,1.46875 -2.390625,2.921875 0,0.9375 0.546875,1.59375 1.3125,1.59375 0.203125,0 0.703125,-0.046875 1.296875,-0.75 0.078125,0.421875 0.4375,0.75 0.90625,0.75 0.359375,0 0.578125,-0.234375 0.75,-0.546875 0.15625,-0.359375 0.296875,-0.96875 0.296875,-0.984375 0,-0.109375 -0.09375,-0.109375 -0.125,-0.109375 -0.09375,0 -0.109375,0.046875 -0.140625,0.1875 -0.171875,0.640625 -0.34375,1.234375 -0.75,1.234375 -0.28125,0 -0.296875,-0.265625 -0.296875,-0.453125 0,-0.25 0.015625,-0.3125 0.046875,-0.484375 z m -2.0625,5.625 C 3.015625,-1 3.015625,-0.984375 2.875,-0.8125 2.4375,-0.265625 2.03125,-0.109375 1.75,-0.109375 c -0.5,0 -0.640625,-0.546875 -0.640625,-0.9375 0,-0.5 0.3125,-1.71875 0.546875,-2.1875 0.3125,-0.578125 0.75,-0.953125 1.15625,-0.953125 0.640625,0 0.78125,0.8125 0.78125,0.875 0,0.0625 -0.015625,0.125 -0.03125,0.171875 z m 0,0"
   style="stroke:none;stroke-width:0"
   inkscape:connector-curvature="0" />
</g>
</g>
</g><path
   inkscape:connector-curvature="0"
   id="path4886-7"
   d="M 20,216 V 124"
   style="display:inline;fill:none;fill-rule:evenodd;stroke:#000000;stroke-width:0.80000001;stroke-linecap:butt;stroke-linejoin:miter;stroke-miterlimit:4;stroke-dasharray:none;stroke-opacity:1;marker-start:url(#Arrow1Mstart-1-2);marker-end:url(#marker6762-1)" /><path
   inkscape:connector-curvature="0"
   d="m 60.919301,241.45868 -0.175158,18.135"
   style="display:inline;fill:none;stroke:#000000;stroke-width:0.72411746;stroke-linecap:butt;stroke-linejoin:miter;stroke-miterlimit:10;stroke-dasharray:none;stroke-opacity:1;marker-end:url(#marker10842-3-3)"
   id="path86-7-0" /><path
   inkscape:connector-curvature="0"
   d="m 60.709625,241.43331 15.234518,-9.83963"
   style="display:inline;fill:none;stroke:#000000;stroke-width:0.72411746;stroke-linecap:butt;stroke-linejoin:miter;stroke-miterlimit:10;stroke-dasharray:none;stroke-opacity:1;marker-end:url(#marker10842-3-5-0)"
   id="path86-7-5-6" /><g
   transform="matrix(0.99079347,0,0,-0.99079347,-84.829069,390.28872)"
   ns0:version="0.8.0"
   ns0:texconverter="pdflatex"
   ns0:pdfconverter="pdf2svg"
   ns0:text="$z_e$"
   ns0:preamble="/home/olivier/.config/inkscape/extensions/default_packages.tex"
   ns0:scale="1.0"
   ns0:alignment="middle center"
   inkscapeversion="0.91"
   ns0:jacobian_sqrt="1.333333"
   id="g6713"><g
   id="g6711">
<g
   style="fill:#000000;fill-opacity:1"
   id="g6705">
  <path
   inkscape:connector-curvature="0"
   style="stroke:none;stroke-width:0"
   d="m 1.328125,-0.828125 c 0.53125,-0.578125 0.828125,-0.828125 1.1875,-1.140625 0,0 0.609375,-0.53125 0.96875,-0.890625 C 4.4375,-3.78125 4.65625,-4.265625 4.65625,-4.3125 c 0,-0.09375 -0.09375,-0.09375 -0.109375,-0.09375 -0.078125,0 -0.09375,0.015625 -0.15625,0.109375 -0.296875,0.484375 -0.5,0.640625 -0.734375,0.640625 -0.25,0 -0.359375,-0.15625 -0.515625,-0.328125 -0.1875,-0.21875 -0.359375,-0.421875 -0.6875,-0.421875 -0.75,0 -1.203125,0.921875 -1.203125,1.140625 0,0.046875 0.03125,0.109375 0.109375,0.109375 0.09375,0 0.109375,-0.046875 0.140625,-0.109375 0.1875,-0.46875 0.765625,-0.46875 0.84375,-0.46875 0.203125,0 0.390625,0.0625 0.625,0.140625 0.40625,0.15625 0.515625,0.15625 0.765625,0.15625 -0.359375,0.421875 -1.1875,1.140625 -1.375,1.296875 l -0.90625,0.84375 C 0.78125,-0.625 0.421875,-0.0625 0.421875,0.015625 c 0,0.09375 0.109375,0.09375 0.125,0.09375 0.078125,0 0.09375,-0.015625 0.15625,-0.125 0.234375,-0.359375 0.53125,-0.625 0.859375,-0.625 0.21875,0 0.328125,0.09375 0.578125,0.375 0.15625,0.21875 0.34375,0.375 0.625,0.375 1,0 1.578125,-1.265625 1.578125,-1.53125 0,-0.046875 -0.046875,-0.109375 -0.125,-0.109375 -0.09375,0 -0.109375,0.0625 -0.140625,0.140625 C 3.84375,-0.75 3.203125,-0.5625 2.875,-0.5625 c -0.1875,0 -0.375,-0.0625 -0.578125,-0.125 -0.34375,-0.125 -0.5,-0.171875 -0.703125,-0.171875 -0.015625,0 -0.171875,0 -0.265625,0.03125 z m 0,0"
   transform="translate(148.712,134.765)"
   id="path6703" />
</g>
<g
   style="fill:#000000;fill-opacity:1"
   id="g6709">
  <path
   inkscape:connector-curvature="0"
   style="stroke:none;stroke-width:0"
   d="m 1.5625,-1.59375 c 0.1875,0 0.75,-0.015625 1.125,-0.140625 0.515625,-0.1875 0.609375,-0.515625 0.609375,-0.71875 0,-0.390625 -0.390625,-0.625 -0.859375,-0.625 -0.84375,0 -1.96875,0.640625 -1.96875,1.84375 0,0.703125 0.4375,1.296875 1.25,1.296875 1.1875,0 1.734375,-0.6875 1.734375,-0.78125 0,-0.046875 -0.0625,-0.125 -0.125,-0.125 -0.03125,0 -0.046875,0.015625 -0.109375,0.078125 C 2.671875,-0.125 1.859375,-0.125 1.734375,-0.125 1.3125,-0.125 1.03125,-0.40625 1.03125,-0.96875 c 0,-0.09375 0,-0.234375 0.09375,-0.625 z M 1.171875,-1.78125 C 1.46875,-2.796875 2.234375,-2.875 2.4375,-2.875 2.734375,-2.875 3,-2.71875 3,-2.453125 3,-1.78125 1.8125,-1.78125 1.515625,-1.78125 Z m 0,0"
   transform="translate(153.345,136.259)"
   id="path6707" />
</g>
</g>
</g><g
   id="g7103"
   ns0:jacobian_sqrt="0.990793"
   inkscapeversion="0.91"
   ns0:alignment="middle center"
   ns0:scale="0.743095265774"
   ns0:preamble="/home/olivier/.config/inkscape/extensions/default_packages.tex"
   ns0:text="$x_e$"
   ns0:pdfconverter="pdf2svg"
   ns0:texconverter="pdflatex"
   ns0:version="0.8.0"
   transform="matrix(0.990793,0,0,-0.990793,-77.587574,372.88949)"><g
   id="g7101">
<g
   id="g7095"
   style="fill:#000000;fill-opacity:1">
  <path
   id="path7093"
   transform="translate(148.712,134.765)"
   d="M 3.328125,-3.015625 C 3.390625,-3.265625 3.625,-4.1875 4.3125,-4.1875 c 0.046875,0 0.296875,0 0.5,0.125 C 4.53125,-4 4.34375,-3.765625 4.34375,-3.515625 c 0,0.15625 0.109375,0.34375 0.375,0.34375 0.21875,0 0.53125,-0.171875 0.53125,-0.578125 0,-0.515625 -0.578125,-0.65625 -0.921875,-0.65625 -0.578125,0 -0.921875,0.53125 -1.046875,0.75 -0.25,-0.65625 -0.78125,-0.75 -1.078125,-0.75 -1.03125,0 -1.609375,1.28125 -1.609375,1.53125 0,0.109375 0.109375,0.109375 0.125,0.109375 0.078125,0 0.109375,-0.03125 0.125,-0.109375 0.34375,-1.0625 1,-1.3125 1.34375,-1.3125 0.1875,0 0.53125,0.09375 0.53125,0.671875 0,0.3125 -0.171875,0.96875 -0.53125,2.375 -0.15625,0.609375 -0.515625,1.03125 -0.953125,1.03125 -0.0625,0 -0.28125,0 -0.5,-0.125 0.25,-0.0625 0.46875,-0.265625 0.46875,-0.546875 0,-0.265625 -0.21875,-0.34375 -0.359375,-0.34375 -0.3125,0 -0.546875,0.25 -0.546875,0.578125 0,0.453125 0.484375,0.65625 0.921875,0.65625 0.671875,0 1.03125,-0.703125 1.046875,-0.75 0.125,0.359375 0.484375,0.75 1.078125,0.75 1.03125,0 1.59375,-1.28125 1.59375,-1.53125 0,-0.109375 -0.078125,-0.109375 -0.109375,-0.109375 -0.09375,0 -0.109375,0.046875 -0.140625,0.109375 -0.328125,1.078125 -1,1.3125 -1.3125,1.3125 -0.390625,0 -0.546875,-0.3125 -0.546875,-0.65625 0,-0.21875 0.046875,-0.4375 0.15625,-0.875 z m 0,0"
   style="stroke:none;stroke-width:0"
   inkscape:connector-curvature="0" />
</g>
<g
   id="g7099"
   style="fill:#000000;fill-opacity:1">
  <path
   id="path7097"
   transform="translate(154.406,136.259)"
   d="m 1.5625,-1.59375 c 0.1875,0 0.75,-0.015625 1.125,-0.140625 0.515625,-0.1875 0.609375,-0.515625 0.609375,-0.71875 0,-0.390625 -0.390625,-0.625 -0.859375,-0.625 -0.84375,0 -1.96875,0.640625 -1.96875,1.84375 0,0.703125 0.4375,1.296875 1.25,1.296875 1.1875,0 1.734375,-0.6875 1.734375,-0.78125 0,-0.046875 -0.0625,-0.125 -0.125,-0.125 -0.03125,0 -0.046875,0.015625 -0.109375,0.078125 C 2.671875,-0.125 1.859375,-0.125 1.734375,-0.125 1.3125,-0.125 1.03125,-0.40625 1.03125,-0.96875 c 0,-0.09375 0,-0.234375 0.09375,-0.625 z M 1.171875,-1.78125 C 1.46875,-2.796875 2.234375,-2.875 2.4375,-2.875 2.734375,-2.875 3,-2.71875 3,-2.453125 3,-1.78125 1.8125,-1.78125 1.515625,-1.78125 Z m 0,0"
   style="stroke:none;stroke-width:0"
   inkscape:connector-curvature="0" />
</g>
</g>
</g></g></svg>